<svg xmlns="http://www.w3.org/2000/svg" viewBox="0 0 612 792" enable-background="new 0 0 612 792"><g fill="#EFE91C" stroke="#B86228" stroke-miterlimit="10"><path d="M439.7 343.1c1.4-33.2-8.2-59.8-21.3-81.1-13.1-21.3-36.7-42.4-62.7-39.9-15.6 1.4-22.3 7.4-25.8 15.6-3.5 8.4-4.3 27.2-4.3 35.2v199.3c37.7-5.1 72.7-26.8 94.6-61.4 12.2-19.4 18.5-45 19.5-67.7M306 96.9c-169 0-306 135-306 301.3C0 552.8 117.8 679.8 270 697c7.6.4 11.9-.4 15.6-3.3 2.9-2.5 4.1-6.6 4.1-10l.2-179.6c-82.3-8.6-148.3-76.6-147.3-160 1-79.7 55.9-143.6 128.4-158.5 1.8-.4 3.3-.8 4.3.2 1.2 1 .4 3.9.4 3.9l-5.5 26.6s-.4 1.6-.8 2.3c-.4.4-1.2.8-1.8 1-31.5 9.8-60 31.1-73.9 56.9-11.5 21.5-19 37.7-19 67 0 63.1 49.6 121 115.1 128.8V273c0-20.9 1-45.1 13.3-61.9 9.6-12.9 26.2-20.9 52.4-20.9 37.9 0 83.2 27.7 105.9 87.7 7 18 11.1 41.2 10.9 66C471.9 427 407 495 325 504l-.2 179.6c0 4.7 1.4 8.2 4.3 10.4 3.3 2.7 6.1 3.7 15.4 2.9 3.5-.2 10-1.2 12.7-1.6 144.4-24.2 254.4-147.9 254.4-297C612 231.8 475 96.9 306 96.9"/></g></svg>